<?xml version="1.0" encoding="iso-8859-1"?>
<!-- Generator: Adobe Illustrator 19.0.0, SVG Export Plug-In . SVG Version: 6.00 Build 0)  -->
<svg xmlns="http://www.w3.org/2000/svg" xmlns:xlink="http://www.w3.org/1999/xlink" version="1.1" id="Capa_1" x="0px" y="0px" viewBox="0 0 42 42" style="enable-background:new 0 0 42 42;" xml:space="preserve" width="512px" height="512px">
<g>
	<rect y="20" width="42" height="2" fill="#FFFFFF"/>
	<path d="M21,13c2.757,0,5-2.243,5-5s-2.243-5-5-5s-5,2.243-5,5S18.243,13,21,13z M21,5c1.654,0,3,1.346,3,3s-1.346,3-3,3   s-3-1.346-3-3S19.346,5,21,5z" fill="#FFFFFF"/>
	<path d="M21,29c-2.757,0-5,2.243-5,5s2.243,5,5,5s5-2.243,5-5S23.757,29,21,29z M21,37c-1.654,0-3-1.346-3-3s1.346-3,3-3   s3,1.346,3,3S22.654,37,21,37z" fill="#FFFFFF"/>
</g>
<g>
</g>
<g>
</g>
<g>
</g>
<g>
</g>
<g>
</g>
<g>
</g>
<g>
</g>
<g>
</g>
<g>
</g>
<g>
</g>
<g>
</g>
<g>
</g>
<g>
</g>
<g>
</g>
<g>
</g>
</svg>
